# xmcd CD database file
#
# Track frame offsets:
#	182
#	10595
#	20332
#	27207
#	36470
#	48445
#	56257
#	65220
#	78070
#	88745
#
# Disc length: 1339 seconds
#
# Revision: 1
# Processed by: cddbd v1.5.1PL2 Copyright (c) Steve Scherf et al.
# Submitted via: CDex 1.51
#
DISCID=7305390a
DTITLE=JIm Reeves - Live Cd 1(Raw Music)
DYEAR=1900
DGENRE=Country
TTITLE0=Dear Hearts and Gentle People
TTITLE1=I'm Getting Better
TTITLE2=Have I told you Lately That I Love You
TTITLE3=Billy Bayou
TTITLE4=Mexican Joe
TTITLE5=The Oklahoma Hills
TTITLE6=Yonder Comes a Sucker
TTITLE7=When God Dips His His Love In My Heart
TTITLE8=Peace In The Valley
TTITLE9=I've Lived A Lot Of My Time
EXTD=
EXTT0=
EXTT1=
EXTT2=
EXTT3=
EXTT4=
EXTT5=
EXTT6=
EXTT7=
EXTT8=
EXTT9=
PLAYORDER=
